<svg xmlns="http://www.w3.org/2000/svg" width="18" height="18" viewBox="0 0 18 18">
    <defs>
        <style>
            .cls-1,.cls-3{fill:none}.cls-1{stroke:#000;stroke-width:2px}.cls-2{stroke:none}
        </style>
    </defs>
    <g id="icon_globe" data-name="icon globe" transform="translate(-1757.362 -48)">
        <g id="Ellipse_12" class="cls-1" data-name="Ellipse 12" transform="translate(1757.362 48)">
            <circle cx="9" cy="9" r="9" class="cls-2"/>
            <circle cx="9" cy="9" r="8" class="cls-3"/>
        </g>
        <path id="Union_4" d="M7.263 15.606a7.521 7.521 0 0 0-2.037-4.994 4.019 4.019 0 0 1-.375-1.732c-.2-1.054-.279-.935-.821-1.415L0 5.562l1.313-3.205L3.941.193 4.983 0h2.7s.228 3.941-2.859 4.481c-1.761.309-1.509 1.363-.968 2.209a.727.727 0 0 1 .065.088 2.392 2.392 0 0 0 2.409.553l.026-.018C7.862 6.309 8.733 8.561 10.43 9c.768 1.818-1 1.468-1.391 3.128a11.011 11.011 0 0 0-.154 3.476s-.172.018-.653.018a27.56 27.56 0 0 1-.969-.016zm6.779-7.318C12.149 7.373 12.149 1.5 12.149 1.5l.719-.654 3 5.811s.047 1.83-1.092 1.83a1.724 1.724 0 0 1-.734-.2z" data-name="Union 4" transform="translate(1758.965 49.435)"/>
    </g>
</svg>
